# xmcd CD database file
#
# Track frame offsets:
#	150
#	29497
#	52899
#	66739
#	105101
#	119213
#	145007
#	190824
#	206791
#	222771
#	252688
#
# Disc length: 3489 seconds
#
# Revision: 0
# Processed by: cddbd v1.5.1PL0 Copyright (c) Steve Scherf et al.
# Submitted via: CDex 1.51
#
DISCID=ae0d9f0b
DTITLE=Iridescente Ensemble and Paolo Fresu - Things Left Behind (Oggetti Lasciati)
DYEAR=1998
DGENRE=Jazz
TTITLE0=Iridescente
TTITLE1=La stanza dei giochi
TTITLE2=Callianira
TTITLE3=Tema per Kandinsky
TTITLE4=Senzaterra
TTITLE5=Lungolago
TTITLE6=Piazza d'Italia (A Giorgio De Chirico)
TTITLE7=De sideros
TTITLE8=Oggetti Lasciati
TTITLE9=La Giosta di Azil
TTITLE10=Gare de Sion
EXTD=YEAR: 1998
EXTT0=
EXTT1=
EXTT2=
EXTT3=
EXTT4=
EXTT5=
EXTT6=
EXTT7=
EXTT8=
EXTT9=
EXTT10=
PLAYORDER=
